name rise44.9368peak50.754fall52.0217.mot
datacolumns 19
datarows 24
range 23.14658200000000 23.18491600000000
endheader
time	ground_force1_vx	ground_force1_vy	ground_force1_vz	ground_force1_px	ground_force1_py	ground_force1_pz	ground_force2_vx	ground_force2_vy	ground_force2_vz	ground_force2_px	ground_force2_py	ground_force2_pz	ground_torque1_x	ground_torque1_y	ground_torque1_z	ground_torque2_x	ground_torque2_y	ground_torque2_z	
23.14658200000000	9.05269700000000	697.57568700000002	49.07932900000000	0.28746500000000	0.00000000000000	0.12432700000000	0.00000000000000	0.00000000000000	0.00000000000000	0.00000000000000	0.00000000000000	0.00000000000000	0.00000000000000	25.63726000000000	0.00000000000000	0.00000000000000	0.00000000000000	0.00000000000000	
23.14825300000000	8.53176700000000	698.27374899999995	49.13603000000000	0.28660900000000	0.00000000000000	0.12433300000000	0.00000000000000	0.00000000000000	0.00000000000000	0.00000000000000	0.00000000000000	0.00000000000000	0.00000000000000	25.73755600000000	0.00000000000000	0.00000000000000	0.00000000000000	0.00000000000000	
23.14991700000000	7.99795200000000	699.00202800000000	49.19579500000000	0.28575300000000	0.00000000000000	0.12433800000000	0.00000000000000	0.00000000000000	0.00000000000000	0.00000000000000	0.00000000000000	0.00000000000000	0.00000000000000	25.84372800000000	0.00000000000000	0.00000000000000	0.00000000000000	0.00000000000000	
23.15157900000000	7.45104200000000	699.76032099999998	49.25835300000000	0.28489700000000	0.00000000000000	0.12434200000000	0.00000000000000	0.00000000000000	0.00000000000000	0.00000000000000	0.00000000000000	0.00000000000000	0.00000000000000	25.95561600000000	0.00000000000000	0.00000000000000	0.00000000000000	0.00000000000000	
23.15324600000000	6.89086200000000	700.54845399999999	49.32344000000000	0.28403900000000	0.00000000000000	0.12434400000000	0.00000000000000	0.00000000000000	0.00000000000000	0.00000000000000	0.00000000000000	0.00000000000000	0.00000000000000	26.07305200000000	0.00000000000000	0.00000000000000	0.00000000000000	0.00000000000000	
23.15491300000000	6.31727300000000	701.36629000000005	49.39080100000000	0.28318100000000	0.00000000000000	0.12434500000000	0.00000000000000	0.00000000000000	0.00000000000000	0.00000000000000	0.00000000000000	0.00000000000000	0.00000000000000	26.19586400000000	0.00000000000000	0.00000000000000	0.00000000000000	0.00000000000000	
23.15657900000000	5.73017000000000	702.21372099999996	49.46018700000000	0.28232000000000	0.00000000000000	0.12434500000000	0.00000000000000	0.00000000000000	0.00000000000000	0.00000000000000	0.00000000000000	0.00000000000000	0.00000000000000	26.32387100000000	0.00000000000000	0.00000000000000	0.00000000000000	0.00000000000000	
23.15824700000000	5.12948900000000	703.09067000000005	49.53136000000000	0.28145800000000	0.00000000000000	0.12434300000000	0.00000000000000	0.00000000000000	0.00000000000000	0.00000000000000	0.00000000000000	0.00000000000000	0.00000000000000	26.45689000000000	0.00000000000000	0.00000000000000	0.00000000000000	0.00000000000000	
23.15991500000000	4.51520100000000	703.99708899999996	49.60409000000000	0.28059300000000	0.00000000000000	0.12434000000000	0.00000000000000	0.00000000000000	0.00000000000000	0.00000000000000	0.00000000000000	0.00000000000000	0.00000000000000	26.59473100000000	0.00000000000000	0.00000000000000	0.00000000000000	0.00000000000000	
23.16158000000000	3.88731200000000	704.93295599999999	49.67815900000000	0.27972600000000	0.00000000000000	0.12433700000000	0.00000000000000	0.00000000000000	0.00000000000000	0.00000000000000	0.00000000000000	0.00000000000000	0.00000000000000	26.73720200000000	0.00000000000000	0.00000000000000	0.00000000000000	0.00000000000000	
23.16325400000000	3.24586900000000	705.89827500000001	49.75336100000000	0.27885600000000	0.00000000000000	0.12433200000000	0.00000000000000	0.00000000000000	0.00000000000000	0.00000000000000	0.00000000000000	0.00000000000000	0.00000000000000	26.88410400000000	0.00000000000000	0.00000000000000	0.00000000000000	0.00000000000000	
23.16491300000000	2.59095300000000	706.89307099999996	49.82950000000000	0.27798200000000	0.00000000000000	0.12432500000000	0.00000000000000	0.00000000000000	0.00000000000000	0.00000000000000	0.00000000000000	0.00000000000000	0.00000000000000	27.03523600000000	0.00000000000000	0.00000000000000	0.00000000000000	0.00000000000000	
23.16658600000000	1.92268300000000	707.91738999999995	49.90639500000000	0.27710500000000	0.00000000000000	0.12431800000000	0.00000000000000	0.00000000000000	0.00000000000000	0.00000000000000	0.00000000000000	0.00000000000000	0.00000000000000	27.19039300000000	0.00000000000000	0.00000000000000	0.00000000000000	0.00000000000000	
23.16825300000000	1.24121300000000	708.97129299999995	49.98387500000000	0.27622400000000	0.00000000000000	0.12430900000000	0.00000000000000	0.00000000000000	0.00000000000000	0.00000000000000	0.00000000000000	0.00000000000000	0.00000000000000	27.34936700000000	0.00000000000000	0.00000000000000	0.00000000000000	0.00000000000000	
23.16991200000000	0.54673400000000	710.05485899999996	50.06178700000000	0.27533800000000	0.00000000000000	0.12430000000000	0.00000000000000	0.00000000000000	0.00000000000000	0.00000000000000	0.00000000000000	0.00000000000000	0.00000000000000	27.51194800000000	0.00000000000000	0.00000000000000	0.00000000000000	0.00000000000000	
23.17158700000000	-0.16052800000000	711.16817400000002	50.13998900000000	0.27444700000000	0.00000000000000	0.12428900000000	0.00000000000000	0.00000000000000	0.00000000000000	0.00000000000000	0.00000000000000	0.00000000000000	0.00000000000000	27.67792300000000	0.00000000000000	0.00000000000000	0.00000000000000	0.00000000000000	
23.17325000000000	-0.88031300000000	712.31133499999999	50.21835500000000	0.27355200000000	0.00000000000000	0.12427700000000	0.00000000000000	0.00000000000000	0.00000000000000	0.00000000000000	0.00000000000000	0.00000000000000	0.00000000000000	27.84707800000000	0.00000000000000	0.00000000000000	0.00000000000000	0.00000000000000	
23.17491700000000	-1.61232500000000	713.48443999999995	50.29677500000000	0.27265100000000	0.00000000000000	0.12426500000000	0.00000000000000	0.00000000000000	0.00000000000000	0.00000000000000	0.00000000000000	0.00000000000000	0.00000000000000	28.01919800000000	0.00000000000000	0.00000000000000	0.00000000000000	0.00000000000000	
23.17658100000000	-2.35623800000000	714.68759000000000	50.37515200000000	0.27174500000000	0.00000000000000	0.12425100000000	0.00000000000000	0.00000000000000	0.00000000000000	0.00000000000000	0.00000000000000	0.00000000000000	0.00000000000000	28.19406700000000	0.00000000000000	0.00000000000000	0.00000000000000	0.00000000000000	
23.17825300000000	-3.11169200000000	715.92088300000000	50.45340800000000	0.27083300000000	0.00000000000000	0.12423600000000	0.00000000000000	0.00000000000000	0.00000000000000	0.00000000000000	0.00000000000000	0.00000000000000	0.00000000000000	28.37146600000000	0.00000000000000	0.00000000000000	0.00000000000000	0.00000000000000	
23.17991800000000	-3.87829500000000	717.18440899999996	50.53147900000000	0.26991400000000	0.00000000000000	0.12422100000000	0.00000000000000	0.00000000000000	0.00000000000000	0.00000000000000	0.00000000000000	0.00000000000000	0.00000000000000	28.55117800000000	0.00000000000000	0.00000000000000	0.00000000000000	0.00000000000000	
23.18158600000000	-4.65562700000000	718.47824800000001	50.60931800000000	0.26898900000000	0.00000000000000	0.12420400000000	0.00000000000000	0.00000000000000	0.00000000000000	0.00000000000000	0.00000000000000	0.00000000000000	0.00000000000000	28.73298700000000	0.00000000000000	0.00000000000000	0.00000000000000	0.00000000000000	
23.18325100000000	-5.44323600000000	719.80246599999998	50.68689300000000	0.26805700000000	0.00000000000000	0.12418700000000	0.00000000000000	0.00000000000000	0.00000000000000	0.00000000000000	0.00000000000000	0.00000000000000	0.00000000000000	28.91667500000000	0.00000000000000	0.00000000000000	0.00000000000000	0.00000000000000	
23.18491600000000	-6.24064400000000	721.15710999999999	50.76419100000000	0.26711800000000	0.00000000000000	0.12416800000000	0.00000000000000	0.00000000000000	0.00000000000000	0.00000000000000	0.00000000000000	0.00000000000000	0.00000000000000	29.10202700000000	0.00000000000000	0.00000000000000	0.00000000000000	0.00000000000000	
